<svg version="1.1" id="Layer_1" xmlns="http://www.w3.org/2000/svg" xmlns:xlink="http://www.w3.org/1999/xlink" x="0px" y="0px"
	 width="100%" viewBox="0 0 176 71" enable-background="new 0 0 176 71" xml:space="preserve">
<path fill="#000000" opacity="1.000000" stroke="none" 
	d="
M106.000000,72.000000 
	C70.666672,72.000000 35.833344,72.000000 1.000009,72.000000 
	C1.000006,48.333340 1.000006,24.666681 1.000003,1.000016 
	C59.666653,1.000010 118.333305,1.000010 176.999969,1.000005 
	C176.999969,24.666649 176.999969,48.333298 176.999985,71.999969 
	C153.500000,72.000000 130.000000,72.000000 106.000000,72.000000 
M55.365303,47.596622 
	C55.365303,47.596622 55.469921,47.628746 55.462238,48.316349 
	C56.819279,49.472233 58.176319,50.628117 59.247391,51.540421 
	C59.396896,53.721569 58.783211,56.622227 59.789162,57.383945 
	C64.049294,60.609764 68.480751,64.584885 73.430122,65.692856 
	C80.588234,67.295265 88.247612,66.879471 95.695351,66.920311 
	C110.446564,67.001198 115.030647,61.417019 120.701538,48.488331 
	C121.812996,45.954403 123.292107,43.430424 125.151207,41.406719 
	C129.232880,36.963680 130.217575,31.467531 126.575218,27.644753 
	C126.101784,27.307047 125.628349,26.969341 124.930237,26.017714 
	C120.184853,26.241276 118.420670,22.722885 116.096870,19.469080 
	C109.957916,10.873303 101.653755,5.885448 90.820267,6.073411 
	C86.190422,6.153739 81.561104,6.615765 76.944748,7.046010 
	C68.208725,7.860208 60.520622,10.269234 57.978458,20.124319 
	C57.821598,20.732420 57.537025,21.459866 57.070511,21.812241 
	C52.418262,25.326248 51.479908,29.767559 53.190510,33.568695 
	C51.714325,37.144955 50.693317,39.618477 49.680107,42.757790 
	C49.739670,43.199184 49.799229,43.640575 50.014221,44.750481 
	C51.761448,45.698212 53.508675,46.645943 55.365303,47.596622 
z"/>
<path fill="#2C393D" opacity="1.000000" stroke="none" 
	d="
M49.672318,42.092003 
	C50.693317,39.618477 51.714325,37.144955 53.190510,33.568695 
	C51.479908,29.767559 52.418262,25.326248 57.070511,21.812241 
	C57.537025,21.459866 57.821598,20.732420 57.978458,20.124319 
	C60.520622,10.269234 68.208725,7.860208 76.944748,7.046010 
	C81.561104,6.615765 86.190422,6.153739 90.820267,6.073411 
	C101.653755,5.885448 109.957916,10.873303 116.096870,19.469080 
	C118.420670,22.722885 120.184853,26.241276 124.655952,26.403431 
	C117.934326,28.380478 114.670143,33.422829 113.927902,42.986069 
	C113.952156,42.997066 113.975197,42.947098 113.668579,42.971939 
	C113.132072,43.333374 112.902176,43.669960 112.448837,44.265892 
	C111.093086,46.619576 109.960785,48.713913 108.581543,50.532230 
	C107.196243,48.192860 106.057884,46.129505 105.296364,44.018757 
	C107.076935,41.605812 108.585861,39.294605 109.846298,36.855015 
	C110.645157,35.308800 110.585381,32.826855 111.758743,32.056843 
	C115.552177,29.567425 115.485878,26.563414 114.004410,22.617275 
	C113.323753,17.310295 110.138176,16.405960 105.537056,17.189405 
	C103.216560,18.163584 100.512978,18.653925 99.483398,20.234615 
	C98.055107,22.427437 103.229385,31.748682 106.171951,33.152534 
	C105.934700,36.950268 105.455444,40.535973 104.721962,44.075447 
	C104.296234,44.045753 104.124741,44.062290 103.846260,43.830772 
	C103.427589,43.416721 103.115891,43.250721 102.706161,42.774502 
	C101.078697,41.629841 99.549271,40.795403 98.041824,39.534149 
	C98.330086,31.597973 94.815353,27.743526 88.004204,28.060722 
	C86.693672,28.121754 85.380966,28.135956 83.703033,28.063488 
	C78.511604,29.876356 73.686409,31.797499 68.569206,33.885235 
	C67.328049,35.991646 66.378906,37.931465 65.532776,40.262337 
	C66.419342,42.783592 67.202896,44.913792 67.857895,47.385639 
	C66.206100,49.977856 64.682854,52.228428 62.465485,55.504562 
	C62.931835,55.912785 64.194824,57.677063 65.890442,58.348026 
	C68.425545,59.351166 71.265060,59.585014 73.981216,60.477932 
	C74.001930,61.030567 74.016518,61.251369 73.644608,61.433926 
	C71.839920,61.307453 70.421745,61.219231 68.497223,61.099510 
	C69.151466,61.971268 69.363861,62.433739 69.723190,62.690830 
	C70.256554,63.072441 70.890808,63.561794 71.487549,63.569225 
	C82.701698,63.708889 93.917450,63.859447 105.129997,63.739353 
	C106.096916,63.729000 107.043709,61.838009 107.894714,60.622192 
	C107.557243,60.037231 107.324913,59.650688 107.455574,59.166729 
	C110.207672,58.057232 112.596786,57.045151 114.985901,56.033073 
	C114.899300,55.307381 114.812691,54.581692 114.726089,53.855999 
	C112.817345,53.570721 110.908607,53.285442 108.978752,52.618385 
	C108.897499,51.730354 108.837357,51.224102 109.164948,50.731327 
	C110.327927,50.613647 111.703270,50.644035 111.788574,50.327160 
	C113.111465,45.412727 117.707039,44.305408 121.071930,41.621063 
	C124.474548,38.906631 129.021957,35.818256 127.069176,29.602360 
	C127.072174,28.814083 127.083282,28.363995 127.094391,27.913908 
	C130.217575,31.467531 129.232880,36.963680 125.151207,41.406719 
	C123.292107,43.430424 121.812996,45.954403 120.701538,48.488331 
	C115.030647,61.417019 110.446564,67.001198 95.695351,66.920311 
	C88.247612,66.879471 80.588234,67.295265 73.430122,65.692856 
	C68.480751,64.584885 64.049294,60.609764 59.789162,57.383945 
	C58.783211,56.622227 59.396896,53.721569 59.247391,51.540421 
	C58.176319,50.628117 56.819279,49.472233 55.819763,48.066071 
	C58.635712,48.142357 61.983768,51.814369 62.823032,45.690067 
	C60.114422,38.600887 55.275131,36.419197 51.045326,40.274429 
	C50.602535,41.055782 50.137428,41.573891 49.672318,42.092003 
M65.851402,31.927656 
	C70.299515,31.646181 70.299515,31.646181 70.761940,29.367521 
	C70.840424,29.208078 70.918900,29.048634 71.811943,28.881243 
	C77.053314,27.350601 82.294685,25.819958 88.017570,24.148699 
	C90.119308,26.454777 93.258652,25.653774 95.578674,23.107754 
	C98.222191,20.206711 97.057579,17.338223 93.275742,14.768302 
	C90.022255,13.456653 86.616493,13.523808 83.421730,10.834985 
	C76.989677,5.421550 63.558529,10.433603 61.215511,18.438055 
	C60.940731,19.376789 61.619141,20.594534 61.909801,21.932016 
	C57.984035,23.123512 54.114780,25.121662 54.992008,31.679134 
	C55.699940,35.303303 57.988564,37.480434 61.539150,36.664478 
	C62.975990,36.334282 63.872551,33.653095 65.851402,31.927656 
z"/>
<path fill="#489758" opacity="1.000000" stroke="none" 
	d="
M62.822155,46.048775 
	C61.983768,51.814369 58.635712,48.142357 55.823601,47.722271 
	C55.469921,47.628746 55.365303,47.596622 55.199715,47.295181 
	C53.309017,46.023151 51.583904,45.052563 49.858791,44.081970 
	C49.799229,43.640575 49.739670,43.199184 49.676216,42.424896 
	C50.137428,41.573891 50.602535,41.055782 51.430939,40.273754 
	C55.470203,42.022816 59.146179,44.035797 62.822155,46.048775 
z"/>
<path fill="#70AA7D" opacity="1.000000" stroke="none" 
	d="
M126.834808,27.779331 
	C127.083282,28.363995 127.072174,28.814083 126.683929,29.613899 
	C125.536812,29.973682 124.766823,29.983736 123.640198,30.029770 
	C118.346390,31.530094 116.627838,35.357311 115.786308,40.210342 
	C115.015694,41.281540 114.459679,42.128304 113.903656,42.975071 
	C114.670143,33.422829 117.934326,28.380478 124.768295,26.710392 
	C125.628349,26.969341 126.101784,27.307047 126.834808,27.779331 
z"/>
<path fill="#2C393D" opacity="1.000000" stroke="none" 
	d="
M49.936508,44.416225 
	C51.583904,45.052563 53.309017,46.023151 55.145016,47.293709 
	C53.508675,46.645943 51.761448,45.698212 49.936508,44.416225 
z"/>
<path fill="#FBFBFB" opacity="1.000000" stroke="none" 
	d="
M55.162048,30.947378 
	C54.114780,25.121662 57.984035,23.123512 61.909801,21.932016 
	C61.619141,20.594534 60.940731,19.376789 61.215511,18.438055 
	C63.558529,10.433603 76.989677,5.421550 83.421730,10.834985 
	C86.616493,13.523808 90.022255,13.456653 93.579994,15.367447 
	C93.542374,17.225237 93.200500,18.483883 92.648026,20.517870 
	C91.111336,18.783020 90.314812,17.883776 89.433479,16.888788 
	C86.413094,21.699936 82.687439,25.023827 76.975716,25.115894 
	C71.954994,25.196825 66.957542,25.197309 62.590519,28.970444 
	C60.601677,32.365589 58.532967,34.129185 55.162048,30.947378 
z"/>
<path fill="#949FA3" opacity="1.000000" stroke="none" 
	d="
M108.999863,53.000168 
	C110.908607,53.285442 112.817345,53.570721 114.726089,53.855999 
	C114.812691,54.581692 114.899300,55.307381 114.985901,56.033073 
	C112.596786,57.045151 110.207672,58.057232 107.043793,59.173607 
	C95.504379,59.567303 84.739731,59.856705 73.975082,60.146103 
	C71.265060,59.585014 68.425545,59.351166 65.890442,58.348026 
	C64.194824,57.677063 62.931835,55.912785 62.465485,55.504562 
	C64.682854,52.228428 66.206100,49.977856 68.003128,47.081314 
	C71.174385,43.964512 74.071854,41.493683 77.058075,39.183571 
	C77.146812,39.344284 77.287804,39.683304 77.174545,40.042603 
	C75.436546,42.474041 73.283890,44.333473 72.338692,46.679401 
	C71.431908,48.929996 70.772346,52.323753 71.860229,54.035595 
	C72.909546,55.686756 76.284515,56.049358 78.725182,56.561954 
	C80.421288,56.918179 82.266167,56.516701 84.042992,56.547005 
	C89.728172,56.643963 95.412628,56.784374 101.441544,56.922134 
	C102.839745,56.559013 103.893753,56.181778 105.209976,55.851086 
	C105.649544,55.889282 105.826889,55.880936 106.282425,55.928078 
	C106.749702,55.986748 106.938789,55.989937 107.423584,55.963043 
	C108.119904,55.480320 108.520515,55.027683 108.864990,54.312431 
	C108.872520,53.699932 108.936195,53.350052 108.999863,53.000168 
z"/>
<path fill="#F3F4F4" opacity="1.000000" stroke="none" 
	d="
M77.287804,39.683304 
	C77.287804,39.683304 77.146812,39.344284 77.075699,38.810200 
	C77.954460,36.416901 78.721954,34.430355 79.905853,32.734512 
	C81.074463,31.060575 82.664246,29.680664 84.069260,28.171761 
	C85.380966,28.135956 86.693672,28.121754 88.004204,28.060722 
	C94.815353,27.743526 98.330086,31.597973 98.036186,39.940453 
	C98.004837,41.854790 98.001083,42.936008 97.688438,43.861183 
	C96.658546,43.029549 95.927254,42.364559 95.218513,41.676342 
	C93.240875,39.755989 91.268471,37.830200 89.301468,35.898949 
	C85.473618,32.140682 84.210793,37.754238 81.479691,38.061634 
	C80.696205,38.149818 79.956871,38.630188 79.054169,38.718674 
	C78.551659,38.691536 78.192268,38.876453 77.754898,39.177513 
	C77.583664,39.459946 77.453957,39.589832 77.287804,39.683304 
z"/>
<path fill="#CBCECF" opacity="1.000000" stroke="none" 
	d="
M62.912445,28.864784 
	C66.957542,25.197309 71.954994,25.196825 76.975716,25.115894 
	C82.687439,25.023827 86.413094,21.699936 89.433479,16.888788 
	C90.314812,17.883776 91.111336,18.783020 92.648026,20.517870 
	C93.200500,18.483883 93.542374,17.225237 93.898445,15.614417 
	C97.057579,17.338223 98.222191,20.206711 95.578674,23.107754 
	C93.258652,25.653774 90.119308,26.454777 88.017570,24.148699 
	C82.294685,25.819958 77.053314,27.350601 71.342682,28.680080 
	C70.647919,28.461180 70.422409,28.443439 70.196899,28.425697 
	C70.265396,28.870857 70.333893,29.316017 70.402390,29.761175 
	C70.299515,31.646181 70.299515,31.646181 65.363625,31.670799 
	C64.221382,30.564222 63.566914,29.714502 62.912445,28.864784 
z"/>
<path fill="#469557" opacity="1.000000" stroke="none" 
	d="
M114.002632,22.997982 
	C115.485878,26.563414 115.552177,29.567425 111.758743,32.056843 
	C110.585381,32.826855 110.645157,35.308800 109.846298,36.855015 
	C108.585861,39.294605 107.076935,41.605812 105.334778,44.008080 
	C104.996368,44.044792 104.976196,44.121681 104.976196,44.121681 
	C105.455444,40.535973 105.934700,36.950268 106.108047,32.823257 
	C105.248566,30.853086 104.695000,29.424215 104.455612,27.978302 
	C105.320724,27.517092 105.871651,27.072922 106.422577,26.628754 
	C105.539230,26.053104 104.655884,25.477455 103.796623,24.724119 
	C103.820709,24.546432 103.909576,24.198994 103.935364,23.827127 
	C103.961922,22.959883 103.962685,22.464504 103.971588,21.972477 
	C103.979729,21.975830 103.964508,21.953999 104.263916,22.025103 
	C107.709763,22.396797 110.856194,22.697390 114.002632,22.997982 
z"/>
<path fill="#BABEBF" opacity="1.000000" stroke="none" 
	d="
M83.703033,28.063488 
	C82.664246,29.680664 81.074463,31.060575 79.905853,32.734512 
	C78.721954,34.430355 77.954460,36.416901 76.986954,38.649483 
	C74.071854,41.493683 71.174385,43.964512 68.131683,46.739666 
	C67.202896,44.913792 66.419342,42.783592 65.955742,40.288681 
	C72.366592,40.034283 68.334221,35.926609 68.861214,33.718643 
	C73.686409,31.797499 78.511604,29.876356 83.703033,28.063488 
z"/>
<path fill="#4B9D5B" opacity="1.000000" stroke="none" 
	d="
M123.996826,29.993788 
	C124.766823,29.983736 125.536812,29.973682 126.692047,29.952087 
	C129.021957,35.818256 124.474548,38.906631 121.071930,41.621063 
	C117.707039,44.305408 113.111465,45.412727 111.788574,50.327160 
	C111.703270,50.644035 110.327927,50.613647 109.196640,50.743103 
	C108.840599,50.741405 108.828484,50.808247 108.828484,50.808247 
	C109.960785,48.713913 111.093086,46.619576 112.715088,44.150742 
	C113.461586,43.499863 113.718391,43.223480 113.975197,42.947098 
	C113.975197,42.947098 113.952156,42.997066 113.927902,42.986069 
	C114.459679,42.128304 115.015694,41.281540 116.113319,40.121368 
	C119.102226,36.536572 121.549522,33.265179 123.996826,29.993788 
z"/>
<path fill="#727D81" opacity="1.000000" stroke="none" 
	d="
M107.999855,60.820610 
	C107.043709,61.838009 106.096916,63.729000 105.129997,63.739353 
	C93.917450,63.859447 82.701698,63.708889 71.487549,63.569225 
	C70.890808,63.561794 70.256554,63.072441 69.723190,62.690830 
	C69.363861,62.433739 69.151466,61.971268 68.497223,61.099510 
	C70.421745,61.219231 71.839920,61.307453 73.969215,61.597275 
	C85.845894,63.484379 96.969215,63.730877 107.999855,60.820610 
z"/>
<path fill="#39454B" opacity="1.000000" stroke="none" 
	d="
M107.894714,60.622192 
	C96.969215,63.730877 85.845894,63.484379 74.355713,61.635525 
	C74.016518,61.251369 74.001930,61.030567 73.981216,60.477932 
	C84.739731,59.856705 95.504379,59.567303 106.680809,59.271023 
	C107.324913,59.650688 107.557243,60.037231 107.894714,60.622192 
z"/>
<path fill="#489058" opacity="1.000000" stroke="none" 
	d="
M114.004410,22.617275 
	C110.856194,22.697390 107.709763,22.396797 104.319656,21.698355 
	C104.684196,19.930969 105.292412,18.561436 105.900627,17.191900 
	C110.138176,16.405960 113.323753,17.310295 114.004410,22.617275 
z"/>
<path fill="#72AC7F" opacity="1.000000" stroke="none" 
	d="
M105.537056,17.189405 
	C105.292412,18.561436 104.684196,19.930969 104.020248,21.627251 
	C103.964508,21.953999 103.979729,21.975830 103.714203,21.996389 
	C103.602310,22.744297 103.755943,23.471645 103.909576,24.198994 
	C103.909576,24.198994 103.820709,24.546432 103.680687,24.961250 
	C103.740921,26.249161 103.941177,27.122252 104.141434,27.995344 
	C104.695000,29.424215 105.248566,30.853086 105.866043,32.611233 
	C103.229385,31.748682 98.055107,22.427437 99.483398,20.234615 
	C100.512978,18.653925 103.216560,18.163584 105.537056,17.189405 
z"/>
<path fill="#C9CCCD" opacity="1.000000" stroke="none" 
	d="
M62.590519,28.970444 
	C63.566914,29.714502 64.221382,30.564222 64.945404,31.727842 
	C63.872551,33.653095 62.975990,36.334282 61.539150,36.664478 
	C57.988564,37.480434 55.699940,35.303303 55.077026,31.313255 
	C58.532967,34.129185 60.601677,32.365589 62.590519,28.970444 
z"/>
<path fill="#408250" opacity="1.000000" stroke="none" 
	d="
M62.823032,45.690067 
	C59.146179,44.035797 55.470203,42.022816 51.408615,40.010506 
	C55.275131,36.419197 60.114422,38.600887 62.823032,45.690067 
z"/>
<path fill="#C4CDCF" opacity="1.000000" stroke="none" 
	d="
M108.581543,50.532230 
	C108.828484,50.808247 108.840599,50.741405 108.808907,50.729630 
	C108.837357,51.224102 108.897499,51.730354 108.978752,52.618385 
	C108.936195,53.350052 108.872520,53.699932 108.645462,54.458870 
	C108.306374,54.860054 108.130684,54.852180 107.856361,54.519981 
	C107.157860,52.472084 106.557983,50.748516 105.848656,48.765259 
	C105.244263,47.953976 104.749306,47.402386 104.172783,46.532478 
	C103.883385,45.829147 103.675560,45.444134 103.557983,44.798630 
	C103.749901,44.385033 103.851570,44.231926 103.953239,44.078823 
	C104.124741,44.062290 104.296234,44.045753 104.721970,44.075447 
	C104.976196,44.121681 104.996368,44.044792 104.957947,44.055473 
	C106.057884,46.129505 107.196243,48.192860 108.581543,50.532230 
z"/>
<path fill="#A9AEB0" opacity="1.000000" stroke="none" 
	d="
M68.569206,33.885235 
	C68.334221,35.926609 72.366592,40.034283 65.852722,39.897629 
	C66.378906,37.931465 67.328049,35.991646 68.569206,33.885235 
z"/>
<path fill="#C4CDCF" opacity="1.000000" stroke="none" 
	d="
M97.997330,44.017231 
	C98.001083,42.936008 98.004837,41.854790 98.014221,40.367264 
	C99.549271,40.795403 101.078697,41.629841 102.398544,42.815132 
	C101.443001,43.395287 100.697029,43.624588 99.619675,43.858551 
	C98.849754,43.909199 98.411224,43.955177 97.985634,43.996162 
	C97.998581,43.991169 97.997330,44.017231 97.997330,44.017231 
z"/>
<path fill="#F2F5F5" opacity="1.000000" stroke="none" 
	d="
M99.951050,43.853889 
	C100.697029,43.624588 101.443001,43.395287 102.496590,43.125351 
	C103.115891,43.250721 103.427589,43.416721 103.846260,43.830772 
	C103.851570,44.231926 103.749901,44.385033 103.267784,44.863617 
	C101.879440,45.516247 100.871544,45.843399 99.858566,46.152138 
	C99.853485,46.133728 99.863960,46.097000 99.900070,45.724747 
	C99.941132,44.852959 99.946091,44.353428 99.951050,43.853889 
z"/>
<path fill="#C9CCCD" opacity="1.000000" stroke="none" 
	d="
M70.582169,29.564348 
	C70.333893,29.316017 70.265396,28.870857 70.196899,28.425697 
	C70.422409,28.443439 70.647919,28.461180 70.935410,28.684053 
	C70.918900,29.048634 70.840424,29.208078 70.582169,29.564348 
z"/>
<path fill="#70AA7D" opacity="1.000000" stroke="none" 
	d="
M113.668579,42.971939 
	C113.718391,43.223480 113.461586,43.499863 112.938530,43.891396 
	C112.902176,43.669960 113.132072,43.333374 113.668579,42.971939 
z"/>
<path fill="#468D55" opacity="1.000000" stroke="none" 
	d="
M123.640198,30.029770 
	C121.549522,33.265179 119.102226,36.536572 116.327911,39.896938 
	C116.627838,35.357311 118.346390,31.530094 123.640198,30.029770 
z"/>
<path fill="#BBC6C8" opacity="1.000000" stroke="none" 
	d="
M77.174545,40.042603 
	C77.453957,39.589832 77.583664,39.459946 78.097031,39.149422 
	C78.743858,38.980381 78.970573,38.955563 79.197296,38.930740 
	C79.956871,38.630188 80.696205,38.149818 81.479691,38.061634 
	C84.210793,37.754238 85.473618,32.140682 89.301468,35.898949 
	C91.268471,37.830200 93.240875,39.755989 95.218513,41.676342 
	C95.927254,42.364559 96.658546,43.029549 97.688438,43.861183 
	C97.997330,44.017231 97.998581,43.991169 98.034790,44.304508 
	C98.668648,45.110901 99.266304,45.603951 99.863960,46.097000 
	C99.863960,46.097000 99.853485,46.133728 99.830086,46.554085 
	C100.236908,50.285629 100.667137,53.596821 101.097359,56.908012 
	C95.412628,56.784374 89.728172,56.643963 84.042992,56.547005 
	C82.266167,56.516701 80.421288,56.918179 78.725182,56.561954 
	C76.284515,56.049358 72.909546,55.686756 71.860229,54.035595 
	C70.772346,52.323753 71.431908,48.929996 72.338692,46.679401 
	C73.283890,44.333473 75.436546,42.474041 77.174545,40.042603 
z"/>
<path fill="#F5F7F7" opacity="1.000000" stroke="none" 
	d="
M101.441544,56.922131 
	C100.667137,53.596821 100.236908,50.285629 99.835167,46.572495 
	C100.871544,45.843399 101.879440,45.516247 103.177536,45.124107 
	C103.675560,45.444134 103.883385,45.829147 103.950912,46.723484 
	C103.884331,48.080982 103.958054,48.929157 104.031769,49.777328 
	C104.673882,49.526535 105.315994,49.275742 105.958099,49.024948 
	C106.557983,50.748516 107.157860,52.472084 107.621986,54.639416 
	C107.366783,55.386494 107.247330,55.689808 107.127876,55.993122 
	C106.938789,55.989937 106.749702,55.986748 106.269470,55.642975 
	C105.713501,54.716751 105.448685,54.131107 105.183861,53.545464 
	C104.942734,53.630386 104.701607,53.715309 104.460480,53.800232 
	C104.622910,54.468334 104.785339,55.136436 104.947769,55.804543 
	C103.893753,56.181778 102.839745,56.559013 101.441544,56.922131 
z"/>
<path fill="#F2F5F5" opacity="1.000000" stroke="none" 
	d="
M105.209976,55.851086 
	C104.785339,55.136436 104.622910,54.468334 104.460480,53.800232 
	C104.701607,53.715309 104.942734,53.630386 105.183861,53.545464 
	C105.448685,54.131107 105.713501,54.716751 105.991272,55.587494 
	C105.826889,55.880936 105.649544,55.889282 105.209976,55.851086 
z"/>
<path fill="#2C393D" opacity="1.000000" stroke="none" 
	d="
M107.423584,55.963043 
	C107.247330,55.689808 107.366783,55.386494 107.720612,54.963745 
	C108.130684,54.852180 108.306374,54.860054 108.701599,54.721485 
	C108.520515,55.027683 108.119904,55.480320 107.423584,55.963043 
z"/>
<path fill="#BABEBF" opacity="1.000000" stroke="none" 
	d="
M79.054169,38.718678 
	C78.970573,38.955563 78.743858,38.980381 78.175011,39.033287 
	C78.192268,38.876453 78.551659,38.691536 79.054169,38.718678 
z"/>
<path fill="#489058" opacity="1.000000" stroke="none" 
	d="
M104.455612,27.978302 
	C103.941177,27.122252 103.740921,26.249161 103.656601,25.138937 
	C104.655884,25.477455 105.539230,26.053104 106.422577,26.628754 
	C105.871651,27.072922 105.320724,27.517092 104.455612,27.978302 
z"/>
<path fill="#489058" opacity="1.000000" stroke="none" 
	d="
M103.935364,23.827127 
	C103.755943,23.471645 103.602310,22.744297 103.706055,21.993038 
	C103.962685,22.464504 103.961922,22.959883 103.935364,23.827127 
z"/>
<path fill="#F2F5F5" opacity="1.000000" stroke="none" 
	d="
M105.848663,48.765259 
	C105.315994,49.275742 104.673882,49.526535 104.031769,49.777328 
	C103.958054,48.929157 103.884331,48.080982 104.032486,47.041801 
	C104.749306,47.402386 105.244263,47.953976 105.848663,48.765259 
z"/>
<path fill="#F5F7F7" opacity="1.000000" stroke="none" 
	d="
M99.900070,45.724747 
	C99.266304,45.603951 98.668648,45.110901 98.021835,44.309502 
	C98.411224,43.955177 98.849754,43.909199 99.619675,43.858555 
	C99.946091,44.353428 99.941132,44.852959 99.900070,45.724747 
z"/>
</svg>